<?xml version="1.0" standalone="no"?>
<!DOCTYPE svg PUBLIC "-//W3C//DTD SVG 20010904//EN"
 "http://www.w3.org/TR/2001/REC-SVG-20010904/DTD/svg10.dtd">
<svg version="1.0" xmlns="http://www.w3.org/2000/svg"
 width="725.000000pt" height="725.000000pt" viewBox="0 0 725.000000 725.000000"
 preserveAspectRatio="xMidYMid meet">
<metadata>
Created by potrace 1.11, written by Peter Selinger 2001-2013
</metadata>
<g transform="translate(0.000000,725.000000) scale(0.100000,-0.100000)"
fill="#000000" stroke="none">
<path d="M2450 6614 c-92 -24 -193 -79 -257 -141 -52 -51 -123 -141 -123 -157
0 -3 -15 -29 -32 -58 -33 -54 -51 -85 -85 -149 -11 -19 -43 -74 -71 -121 -29
-47 -52 -91 -52 -97 0 -6 -4 -11 -8 -11 -4 0 -19 -22 -33 -50 -13 -27 -28 -50
-32 -50 -5 0 -5 -4 -2 -10 3 -5 1 -10 -4 -10 -6 0 -11 -7 -11 -15 0 -8 -5 -15
-11 -15 -5 0 -8 -4 -4 -9 3 -5 -1 -15 -8 -23 -7 -7 -18 -24 -24 -38 -7 -14
-24 -43 -37 -65 -14 -22 -31 -51 -39 -65 -31 -55 -57 -101 -81 -139 -15 -22
-26 -43 -26 -46 0 -3 -11 -22 -23 -43 -13 -20 -35 -57 -49 -82 -14 -25 -67
-117 -118 -205 -51 -88 -106 -185 -123 -215 -16 -30 -38 -66 -47 -80 -10 -14
-21 -35 -24 -47 -4 -13 -12 -23 -17 -23 -5 0 -9 -4 -9 -10 0 -5 -21 -44 -46
-87 -51 -86 -77 -130 -106 -183 -11 -19 -29 -51 -40 -70 -11 -19 -32 -55 -46
-80 -25 -46 -153 -265 -181 -310 -8 -14 -28 -50 -44 -80 -16 -30 -49 -88 -73
-127 -24 -40 -44 -77 -44 -83 0 -5 -4 -10 -9 -10 -5 0 -11 -8 -14 -17 -6 -18
-48 -94 -57 -103 -3 -3 -11 -16 -18 -30 -22 -45 -54 -95 -62 -98 -5 -2 -6 -10
-3 -18 3 -8 0 -14 -6 -14 -6 0 -11 -5 -11 -10 0 -6 -11 -27 -23 -48 -50 -79
-72 -168 -72 -292 1 -136 23 -210 104 -345 17 -27 34 -57 38 -65 3 -8 9 -17
12 -20 3 -3 14 -21 24 -40 9 -19 27 -51 38 -70 81 -135 209 -360 209 -369 0
-6 5 -11 10 -11 6 0 10 -4 10 -10 0 -8 136 -246 188 -330 9 -14 15 -27 13 -29
-1 -2 1 -7 6 -10 4 -3 19 -26 32 -51 13 -25 31 -53 39 -62 8 -10 12 -18 9 -18
-3 0 17 -37 44 -82 52 -84 81 -135 115 -198 11 -19 21 -37 24 -40 9 -9 50 -83
66 -118 8 -17 18 -32 22 -32 5 0 9 -6 9 -12 0 -7 31 -62 67 -123 87 -143 156
-210 276 -271 113 -57 -10 -54 2014 -54 1213 0 1875 4 1901 11 22 5 49 12 60
14 26 6 106 47 123 63 7 6 18 12 23 12 8 0 60 43 90 75 35 37 159 231 159 249
0 4 8 19 19 34 10 15 74 124 142 242 68 118 132 228 142 245 10 16 20 38 23
47 4 10 10 18 15 18 5 0 9 4 9 9 0 7 75 143 115 209 6 9 40 68 75 130 36 62
78 134 93 160 15 26 32 56 37 67 6 11 16 29 22 40 31 47 62 100 63 105 0 3 8
16 16 30 20 31 53 88 92 160 17 30 34 57 39 58 4 2 8 12 8 23 0 10 4 19 8 19
9 0 52 90 77 159 22 64 29 187 16 266 -13 72 -55 185 -75 197 -6 4 -7 8 -3 8
5 0 0 12 -11 28 -10 15 -45 74 -78 132 -32 58 -62 107 -66 108 -4 2 -8 8 -8
13 0 6 -29 60 -65 120 -36 61 -65 114 -65 119 0 4 -7 13 -15 20 -8 7 -12 16
-9 21 3 5 1 9 -3 9 -9 0 -23 25 -43 73 -7 15 -16 27 -22 27 -5 0 -6 5 -3 10 3
6 1 10 -4 10 -6 0 -11 4 -11 10 0 5 -24 49 -53 97 -29 48 -69 117 -88 153 -19
36 -37 67 -41 68 -5 2 -8 8 -8 14 0 5 -7 16 -15 25 -8 8 -13 19 -10 24 4 5 2
9 -3 9 -5 0 -15 13 -22 29 -20 49 -200 223 -200 194 0 -4 -4 -3 -8 2 -24 33
-151 74 -242 78 -19 1 -38 6 -42 12 -5 7 -8 7 -8 0 0 -12 -210 -13 -228 -1 -7
4 -12 4 -12 -1 0 -10 -212 -9 -228 1 -7 4 -12 4 -12 -1 0 -10 -212 -9 -228 1
-7 4 -12 4 -12 -1 0 -10 -212 -9 -228 1 -7 4 -12 4 -12 -1 0 -10 -212 -9 -228
1 -7 4 -12 4 -12 -1 0 -10 -212 -9 -228 1 -7 4 -12 4 -12 -1 0 -10 -212 -9
-228 1 -7 4 -12 4 -12 -1 0 -4 -71 -7 -157 -6 -152 1 -163 -3 -59 -23 83 -16
213 -98 282 -177 34 -39 212 -330 239 -392 6 -13 19 -33 29 -44 11 -12 16 -21
12 -21 -4 0 8 -24 26 -52 19 -29 39 -64 46 -78 6 -14 16 -32 22 -40 34 -53 90
-152 90 -160 0 -6 3 -10 8 -10 4 0 18 -24 32 -53 14 -28 33 -61 43 -71 9 -11
17 -25 17 -32 0 -7 6 -19 13 -26 6 -7 21 -32 32 -55 11 -24 23 -43 28 -43 4 0
7 -4 7 -10 0 -8 34 -69 90 -160 35 -58 110 -195 110 -202 0 -4 5 -8 10 -8 6 0
10 -5 10 -11 0 -5 33 -65 72 -132 40 -67 72 -125 70 -129 -1 -5 2 -8 6 -8 4 0
19 -22 33 -50 13 -27 27 -50 32 -50 4 0 7 -5 7 -10 0 -6 8 -22 17 -37 10 -14
18 -33 20 -42 1 -9 7 -17 12 -19 6 -2 11 -10 11 -18 0 -8 4 -14 9 -14 5 0 12
-11 15 -24 3 -14 13 -32 22 -41 9 -9 14 -19 10 -22 -10 -10 -3471 -6 -3469 4
1 5 24 47 50 94 27 46 52 91 57 99 4 8 18 33 31 55 13 22 32 54 41 70 9 17 64
111 122 210 58 99 105 185 105 192 0 7 6 14 14 17 7 3 13 10 13 15 0 5 43 82
95 171 52 89 95 166 95 171 0 5 5 9 11 9 5 0 7 4 4 10 -3 6 -2 10 3 10 5 0 12
8 15 18 4 9 17 35 30 57 13 22 35 60 49 85 14 25 53 91 87 148 33 57 61 107
61 112 0 5 3 10 8 12 4 2 20 29 37 61 16 31 33 57 37 57 4 0 8 6 8 13 0 8 32
66 70 131 39 65 70 119 70 121 0 3 70 123 90 155 6 8 19 31 29 51 11 20 72
125 136 235 65 109 118 204 119 210 1 5 12 23 24 38 12 16 22 32 22 36 0 6 98
176 139 240 8 14 14 28 13 33 -1 4 2 7 6 7 5 0 14 16 22 35 8 19 17 35 21 35
4 0 12 12 18 28 13 31 53 104 62 112 3 3 17 25 30 50 92 164 164 286 173 292
6 4 7 8 3 8 -4 0 4 17 18 37 14 21 25 43 25 50 0 7 5 13 10 13 6 0 10 4 10 9
0 6 30 61 66 123 37 62 85 145 107 183 83 143 225 251 383 289 52 13 -56 14
-976 15 -871 0 -1044 -3 -1090 -15z"/>
</g>
</svg>
